<svg width="176" height="67" viewBox="0 0 176 67" fill="none" xmlns="http://www.w3.org/2000/svg">
<g clip-path="url(#clip0)">
<path d="M14.12 58.088C12.888 58.088 11.7493 57.92 10.704 57.584C9.62133 57.248 8.744 56.7627 8.072 56.128L9.192 54.056C10.3867 55.1387 11.9733 55.68 13.952 55.68C15.6693 55.68 16.976 55.176 17.872 54.168C18.768 53.16 19.216 51.704 19.216 49.8V17.768H22.016V49.912C22.016 52.4133 21.3253 54.392 19.944 55.848C18.5627 57.3413 16.6213 58.088 14.12 58.088ZM20.616 10.656C19.9813 10.656 19.44 10.4507 18.992 10.04C18.544 9.592 18.32 9.05066 18.32 8.416C18.32 7.78133 18.544 7.24 18.992 6.792C19.44 6.344 19.9813 6.12 20.616 6.12C21.2507 6.12 21.792 6.344 22.24 6.792C22.688 7.20267 22.912 7.72533 22.912 8.36C22.912 8.99466 22.688 9.536 22.24 9.984C21.792 10.432 21.2507 10.656 20.616 10.656ZM59.403 17.768V47H56.715V40.728C55.7443 42.7813 54.307 44.3867 52.403 45.544C50.499 46.664 48.259 47.224 45.683 47.224C41.875 47.224 38.8883 46.16 36.723 44.032C34.5577 41.904 33.475 38.8427 33.475 34.848V17.768H36.275V34.624C36.275 37.9093 37.115 40.4107 38.795 42.128C40.475 43.8453 42.8457 44.704 45.907 44.704C49.1923 44.704 51.787 43.6773 53.691 41.624C55.6323 39.5707 56.603 36.808 56.603 33.336V17.768H59.403ZM85.5519 17.544C89.2106 17.544 92.1039 18.608 94.2319 20.736C96.3599 22.864 97.4239 25.9253 97.4239 29.92V47H94.6239V30.144C94.6239 26.8587 93.7839 24.3573 92.1039 22.64C90.4613 20.9227 88.1466 20.064 85.1599 20.064C81.7253 20.064 79.0186 21.0907 77.0399 23.144C75.0613 25.1973 74.0719 27.96 74.0719 31.432V47H71.2719V17.768H73.9599V24.096C74.9679 22.0427 76.4613 20.4373 78.4399 19.28C80.4559 18.1227 82.8266 17.544 85.5519 17.544ZM123.456 45.152C122.746 45.824 121.85 46.3467 120.768 46.72C119.722 47.056 118.621 47.224 117.464 47.224C114.925 47.224 112.965 46.5333 111.584 45.152C110.202 43.7333 109.512 41.7733 109.512 39.272V20.176H104.136V17.768H109.512V11.384H112.312V17.768H121.608V20.176H112.312V38.992C112.312 40.896 112.76 42.352 113.656 43.36C114.589 44.3307 115.952 44.816 117.744 44.816C119.573 44.816 121.085 44.2747 122.28 43.192L123.456 45.152Z" fill="#534846"/>
<circle cx="145" cy="32" r="15" stroke="#A22406" stroke-width="2"/>
<path d="M152.54 26.4375L143.082 37.0775L137.384 32.5194C137.119 32.3071 136.731 32.3508 136.519 32.6154C136.307 32.8812 136.35 33.2683 136.615 33.4806L142.769 38.4037C142.882 38.4941 143.018 38.5385 143.154 38.5385C143.324 38.5385 143.493 38.4683 143.614 38.3317L153.46 27.2548C153.686 27.0012 153.663 26.6117 153.409 26.3865C153.154 26.16 152.766 26.1828 152.54 26.4375Z" fill="#DF3108" stroke="#AE2100"/>
</g>
<defs>
<clipPath id="clip0">
<rect width="176" height="67" fill="white"/>
</clipPath>
</defs>
</svg>
