<svg width="54" height="54" viewBox="0 0 54 54" fill="none" xmlns="http://www.w3.org/2000/svg">
<path fill-rule="evenodd" clip-rule="evenodd" d="M26.4615 52.9231C41.0758 52.9231 52.9231 41.0758 52.9231 26.4615C52.9231 11.8472 41.0758 0 26.4615 0C11.8472 0 0 11.8472 0 26.4615C0 41.0758 11.8472 52.9231 26.4615 52.9231ZM25.665 38.2612C25.0695 38.9316 24.2367 39.2751 23.4083 39.2751C22.7471 39.2751 22.0781 39.0576 21.5239 38.6148L11.3453 30.472C10.044 29.4304 9.83406 27.5323 10.8731 26.2312L10.8742 26.2299C11.9119 24.9328 13.8121 24.7152 15.1152 25.7588L15.1175 25.7606C18.2156 28.2431 23.0559 32.1111 23.0559 32.1111L37.4362 15.9333C38.5445 14.6866 40.4499 14.5748 41.6965 15.6815C42.945 16.7888 43.0555 18.6992 41.9474 19.9436L25.665 38.2612Z" fill="url(#paint0_linear)"/>
<defs>
<linearGradient id="paint0_linear" x1="46.9615" y1="9.96155" x2="12.9615" y2="48.4615" gradientUnits="userSpaceOnUse">
<stop stop-color="#F2F2F2"/>
<stop offset="1" stop-color="#C7C7C7"/>
</linearGradient>
</defs>
</svg>
