<svg width="54" height="54" viewBox="0 0 54 54" fill="none" xmlns="http://www.w3.org/2000/svg">
<path fill-rule="evenodd" clip-rule="evenodd" d="M27 53.4615C41.6143 53.4615 53.4615 41.6143 53.4615 27C53.4615 12.3857 41.6143 0.538452 27 0.538452C12.3857 0.538452 0.538452 12.3857 0.538452 27C0.538452 41.6143 12.3857 53.4615 27 53.4615ZM26.2035 38.7997C25.6079 39.4701 24.7751 39.8136 23.9468 39.8136C23.2855 39.8136 22.6166 39.5961 22.0623 39.1533L11.8838 31.0104C10.5825 29.9688 10.3725 28.0708 11.4116 26.7697L11.4126 26.7683C12.4503 25.4713 14.3505 25.2536 15.6537 26.2972L15.6559 26.299C18.7541 28.7815 23.5943 32.6496 23.5943 32.6496L37.9747 16.4718C39.0829 15.225 40.9883 15.1132 42.2349 16.22C43.4835 17.3273 43.5939 19.2377 42.4858 20.482L26.2035 38.7997Z" fill="url(#paint0_linear)"/>
<defs>
<linearGradient id="paint0_linear" x1="47.5" y1="10.5" x2="13.5" y2="49" gradientUnits="userSpaceOnUse">
<stop stop-color="#F74A21"/>
<stop offset="1" stop-color="#C22500"/>
</linearGradient>
</defs>
</svg>
